<?xml version="1.0" encoding="UTF-8"?><svg id="Layer_1" xmlns="http://www.w3.org/2000/svg" viewBox="0 0 24 24"><defs><style>.cls-1{fill:#010101;stroke-width:0px;}</style></defs><path class="cls-1" d="M13.5,20.22l4.07-12.72h4.71l-8.78,12.72ZM12,21.64L7.47,7.5h9.05l-4.53,14.14h0ZM1.72,7.5h4.71l4.07,12.72L1.71,7.5h0ZM4.7,2.12l1.4,4.37H1.71l2.99-4.37ZM10.9,1.5l-3.91,4.5-1.44-4.5h5.35ZM12,1.76l4.11,4.73H7.88L12,1.76ZM18.45,1.5l-1.44,4.5-3.91-4.5h5.35,0ZM22.29,6.5h-4.39l1.4-4.37,2.99,4.37ZM23.5,6.49L19.39.5H4.61L.5,6.49v1l11.05,16.01h.91L23.5,7.49v-1h0Z"/></svg>