<?xml version="1.0" encoding="UTF-8"?><svg id="Layer_1" xmlns="http://www.w3.org/2000/svg" viewBox="0 0 24 24"><defs><style>.cls-1{fill:#010101;stroke-width:0px;}</style></defs><path class="cls-1" d="M17.5,18.55v-10.48c0-.32.26-.57.57-.57h2.55c1.04,0,1.88.84,1.88,1.88v10.55c0,.28-.2.51-.47.56h-2.58c-.2-.97-.97-1.74-1.95-1.94ZM17,22.5c-.83,0-1.5-.67-1.5-1.5s.67-1.5,1.5-1.5,1.5.67,1.5,1.5-.67,1.5-1.5,1.5ZM7,22.5c-.83,0-1.5-.67-1.5-1.5s.67-1.5,1.5-1.5,1.5.67,1.5,1.5-.67,1.5-1.5,1.5ZM20.62,6.5h-2.55c-.32,0-.57-.26-.57-.57V.5H.5v1h15.43c.32,0,.57.26.57.57v16.48c-.98.2-1.75.97-1.95,1.94h-5.1c-.24-1.13-1.24-1.99-2.45-1.99s-2.2.85-2.44,1.97H.5v1h4.05c.22,1.15,1.24,2.03,2.45,2.03s2.22-.87,2.45-2.01h5.1c.23,1.14,1.24,2.01,2.45,2.01s2.22-.87,2.45-2.01h4.05v-12.11c0-1.59-1.29-2.88-2.88-2.88Z"/><rect class="cls-1" x=".5" y="12.5" width="8" height="1"/><rect class="cls-1" x=".5" y="6.5" width="8" height="1"/></svg>