<?xml version="1.0" encoding="UTF-8"?><svg id="Layer_1" xmlns="http://www.w3.org/2000/svg" viewBox="0 0 24 24"><defs><style>.cls-1{fill:#010101;stroke-width:0px;}</style></defs><path class="cls-1" d="M3.87,20.13c2.17,2.17,5.06,3.37,8.13,3.37s5.96-1.2,8.13-3.37,3.37-5.06,3.37-8.13c0-1.14-.16-2.25-.48-3.31l-.91.47c.26.91.39,1.86.39,2.85,0,5.79-4.71,10.5-10.5,10.5S1.5,17.79,1.5,12,6.21,1.5,12,1.5c3.87,0,7.26,2.11,9.08,5.24l-3.24-.7-.21.98,4.01.86.91-.47.93-4.13-.98-.22-.67,2.97c-.48-.78-1.05-1.51-1.71-2.18C17.96,1.7,15.07.5,12,.5S6.04,1.7,3.87,3.87C1.7,6.04.5,8.93.5,12s1.2,5.96,3.37,8.13h0Z"/></svg>