<?xml version="1.0" encoding="UTF-8"?><svg id="Layer_1" xmlns="http://www.w3.org/2000/svg" viewBox="0 0 24 24"><defs><style>.cls-1{fill:#231f20;stroke-width:0px;}</style></defs><path class="cls-1" d="M23.5,22.5h0s-.46,0-.46,0c-.33-.01-.65-.07-.89-.31-.36-.36-.55-1.09-.55-2.17v-.5H2.4v.5c0,1.08-.18,1.81-.55,2.17-.29.29-.69.31-1.1.31h-.26v1h23s0,0,0,0v-1ZM4.01,20.51h15.97c.34,0,.64.25.69.59.08.57.24,1.03.46,1.4H2.87c.23-.36.38-.83.46-1.4.05-.34.34-.59.69-.59Z"/><path class="cls-1" d="M12.49,5.4v-1.38c0-.33.26-.59.59-.59h1.44v-.5c0-1.34-1.12-2.43-2.5-2.43s-2.5,1.09-2.5,2.43v.5h1.4c.33,0,.59.26.59.59v1.38C5.4,5.68.5,11.21.5,17.98v.5h23v-.5c0-6.77-4.9-12.3-11.01-12.59ZM12.02,1.5c.64,0,1.19.39,1.4.93h-2.81c.21-.54.76-.93,1.4-.93ZM2.18,17.48c-.36,0-.66-.31-.63-.67.53-5.86,5.02-10.45,10.45-10.45s9.92,4.59,10.45,10.45c.03.36-.26.67-.63.67H2.18Z"/></svg>